<?xml version="1.0" encoding="UTF-8"?>
<svg id="Layer_2" data-name="Layer 2" xmlns="http://www.w3.org/2000/svg" viewBox="0 0 1080 1080">
  <defs>
    <style>
      .cls-1 {
        fill: #1f3fad;
        stroke-width: 0px;
      }
    </style>
  </defs>
  <path class="cls-1" d="m438.02,421.12l-136.97,61.93,92.9,44.66,129.82-57.17s-48.24-10.72-85.75-49.43Z"/>
  <polygon class="cls-1" points="710.31 440.03 458.41 554.37 554.14 599.93 805.45 484.25 710.31 440.03"/>
  <polygon class="cls-1" points="814.38 495.86 814.38 764.73 560.69 885.32 560.69 611.09 814.38 495.86"/>
  <polygon class="cls-1" points="452.9 567.32 546.7 610.5 547 882.35 293.9 764.73 293.9 495.86 389.78 540.23 389.78 628.36 418.37 617.94 452.01 653.37 452.9 567.32"/>
  <path class="cls-1" d="m512.9,386.44l41.24-19.21,38.26,19.21s-32.6,28.58-79.5,0Z"/>
  <path class="cls-1" d="m458.41,326.14h27.69l-43.32-54.49-44.22,54.49h28.58s-1.7,65.52,57.27,103.21c32.52,20.78,72.67,25.22,109.76,14.55,21.66-6.24,44-17.48,56.95-38.47l-18.65-18.65s-59.29,63.04-128.97,20.21c0,0-48.24-27.69-45.11-80.84Z"/>
  <path class="cls-1" d="m654.67,318.03h-27.69l43.32,54.49,44.22-54.49h-28.58s1.7-65.52-57.27-103.21c-32.52-20.78-72.67-25.22-109.76-14.55-21.66,6.24-44,17.48-56.95,38.47l18.65,18.65s59.29-63.04,128.97-20.21c0,0,48.24,27.69,45.11,80.84Z"/>
</svg>