<?xml version="1.0" standalone="no"?>
<!DOCTYPE svg PUBLIC "-//W3C//DTD SVG 20010904//EN"
 "http://www.w3.org/TR/2001/REC-SVG-20010904/DTD/svg10.dtd">
<svg version="1.0" xmlns="http://www.w3.org/2000/svg"
 width="1080.000000pt" height="1080.000000pt" viewBox="0 0 1080.000000 1080.000000"
 preserveAspectRatio="xMidYMid meet">

<g transform="translate(0.000000,1080.000000) scale(0.100000,-0.100000)"
fill="#000000" stroke="none">
<path d="M5272 6906 c-70 -18 -167 -68 -225 -117 -26 -22 -47 -44 -47 -48 0
-4 20 -24 45 -45 l45 -37 42 36 c100 85 242 122 360 93 99 -25 157 -56 221
-120 59 -59 96 -125 118 -210 17 -70 10 -78 -61 -78 l-60 0 96 -110 c53 -60
100 -110 103 -110 7 0 164 195 169 210 2 6 -19 10 -47 10 -33 0 -53 5 -55 13
-2 6 -11 42 -19 78 -49 210 -215 381 -422 434 -71 18 -190 18 -263 1z"/>
<path d="M4822 6468 l-90 -113 58 -3 58 -3 11 -64 c36 -208 167 -365 364 -440
135 -50 285 -42 422 24 85 40 183 120 172 138 -4 7 -24 25 -45 42 l-39 30 -49
-41 c-27 -22 -74 -52 -104 -66 -48 -23 -69 -26 -160 -26 -126 -1 -183 16 -268
78 -87 65 -156 183 -164 282 l-3 39 57 5 58 5 -85 107 c-46 58 -89 109 -94
112 -5 4 -50 -44 -99 -106z"/>
<path d="M5307 6133 c-42 -20 -76 -41 -74 -47 2 -6 28 -19 58 -29 66 -23 184
-20 244 7 l40 17 -73 39 c-40 22 -83 42 -95 45 -14 3 -52 -9 -100 -32z"/>
<path d="M4790 5888 c-58 -27 -150 -69 -205 -93 -55 -24 -142 -63 -193 -87
l-93 -44 73 -34 c40 -18 96 -43 123 -55 28 -13 86 -40 130 -60 44 -21 87 -37
95 -37 8 0 110 44 225 98 116 53 234 107 263 120 50 23 62 44 24 44 -37 0
-221 101 -275 150 -30 27 -56 50 -58 49 -2 0 -51 -23 -109 -51z"/>
<path d="M6025 5831 c-22 -10 -65 -29 -95 -44 -190 -88 -343 -158 -465 -212
-77 -34 -205 -92 -285 -127 -80 -36 -155 -69 -168 -73 -13 -3 -21 -12 -19 -18
1 -5 94 -52 205 -103 l202 -93 107 48 c60 27 207 95 328 151 121 56 288 132
370 170 83 37 182 82 220 100 l70 32 -35 18 c-57 29 -377 170 -386 170 -5 0
-27 -9 -49 -19z"/>
<path d="M4270 5032 l0 -589 68 -31 c37 -16 202 -94 367 -172 348 -164 662
-310 670 -310 3 0 5 265 5 589 0 459 -3 591 -12 598 -7 5 -62 33 -123 60 -60
28 -149 69 -197 91 l-88 41 0 -180 c0 -98 -4 -179 -9 -179 -5 0 -36 29 -70 65
-33 36 -67 65 -74 65 -8 0 -31 -7 -50 -15 -70 -29 -67 -36 -67 173 l0 187
-201 95 c-110 52 -205 97 -210 98 -5 2 -9 -234 -9 -586z"/>
<path d="M6365 5544 c-77 -36 -219 -101 -315 -144 -167 -75 -536 -243 -591
-270 l-27 -12 -4 -587 c-3 -322 -2 -589 2 -594 6 -7 72 23 650 295 129 61 282
133 340 159 l105 49 3 585 c2 465 0 585 -10 585 -7 0 -76 -30 -153 -66z"/>
</g>
</svg>
